<svg width="16" height="16" viewBox="-1 -1 18 18" fill="none" xmlns="http://www.w3.org/2000/svg">
<path d="M8 0.69043C3.65597 0.69043 0 3.67221 0 7.50524C0 9.63371 1.14819 11.6093 3.10234 12.8959L1.82109 14.4334C1.48875 14.8321 1.86928 15.4297 2.37459 15.2884L6.35122 14.1752C11.2407 15.0464 16 11.9089 16 7.50524C16 3.67152 12.3432 0.69043 8 0.69043ZM6.42756 13.1045C6.34631 13.0889 6.26256 13.0923 6.18288 13.1146L3.73822 13.799L4.31909 13.1019C4.53337 12.8447 4.46031 12.4554 4.16713 12.2936C2.22575 11.2219 1.06669 9.43187 1.06669 7.50524C1.06669 4.33568 4.17697 1.75709 8.00003 1.75709C11.8231 1.75709 14.9334 4.33568 14.9334 7.50524C14.9333 11.2229 10.7424 13.9357 6.42756 13.1045Z" fill="currentColor"/>
</svg>
