<svg width="36" height="36" viewBox="0 0 36 36" fill="none" xmlns="http://www.w3.org/2000/svg">
<path d="M13.1079 10.7162V8.72874C13.1079 7.87645 13.3657 7.21038 13.8814 6.73053C14.4042 6.24351 15.1276 6 16.0515 6H20.1231C21.047 6 21.7704 6.24351 22.2932 6.73053C22.816 7.21038 23.0774 7.87645 23.0774 8.72874V10.7162H20.8644V8.82543C20.8644 8.58192 20.7856 8.38854 20.628 8.2453C20.4776 8.0949 20.2663 8.0197 19.9942 8.0197H16.1911C15.919 8.0197 15.7041 8.0949 15.5465 8.2453C15.3961 8.38854 15.3209 8.58192 15.3209 8.82543V10.7162H13.1079ZM8.45613 12.231C8.19114 12.231 7.96553 12.1379 7.77932 11.9517C7.59311 11.7654 7.5 11.5398 7.5 11.2748C7.5 11.017 7.59311 10.7986 7.77932 10.6195C7.96553 10.4333 8.19114 10.3402 8.45613 10.3402H27.7399C28.0049 10.3402 28.2305 10.4297 28.4167 10.6088C28.6029 10.7878 28.696 11.0098 28.696 11.2748C28.696 11.5398 28.6029 11.7654 28.4167 11.9517C28.2305 12.1379 28.0049 12.231 27.7399 12.231H8.45613ZM26.2574 12.0054L25.5698 27.7654C25.534 28.4888 25.3084 29.0403 24.893 29.4199C24.4848 29.8066 23.9154 30 23.1849 30H13.0112C12.2807 30 11.7113 29.8066 11.303 29.4199C10.8948 29.0403 10.6728 28.4888 10.637 27.7654L9.94942 12.0054H26.2574Z" fill="currentColor"/>
</svg>
